<?xml version="1.0" encoding="utf-8"?>
<!-- Generator: Adobe Illustrator 23.1.0, SVG Export Plug-In . SVG Version: 6.00 Build 0)  -->
<svg version="1.1" id="Layer_1" xmlns="http://www.w3.org/2000/svg" xmlns:xlink="http://www.w3.org/1999/xlink" x="0px" y="0px"
	 viewBox="0 0 569.7 572.9" style="enable-background:new 0 0 569.7 572.9;" xml:space="preserve">
<style type="text/css">
	.st0{fill:#636361;}
</style>
<g>
	<g>
		<path class="st0" d="M120.9,359.4v10.7h17.1v7.5h-17.1v14.8h-8.6v-40.6h28v7.5H120.9z"/>
		<path class="st0" d="M146.1,351.9h8.6v40.6h-8.6V351.9z"/>
		<path class="st0" d="M187,392.5l-7.1-11.3h-0.4H172v11.3h-8.6v-40.6h16c9.9,0,16.1,5.6,16.1,14.7c0,6.1-2.8,10.6-7.6,12.8
			l8.3,13.1H187z M179,359.5h-7v14.2h7c5.2,0,7.9-2.7,7.9-7.1C186.9,362.1,184.2,359.5,179,359.5z"/>
		<path class="st0" d="M236,392.5l-0.1-24.4L225,388.2h-3.9l-10.8-19.5v23.8h-8v-40.6h7.1l13.8,25.2l13.6-25.2h7l0.1,40.6H236z"/>
		<path class="st0" d="M276.3,359.4v10.7h17.1v7.5h-17.1v14.8h-8.6v-40.6h28v7.5H276.3z"/>
		<path class="st0" d="M301.2,374.6v-22.7h8.6v22.4c0,7.7,3.1,10.9,8.2,10.9c5.2,0,8.2-3.2,8.2-10.9v-22.4h8.5v22.7
			c0,11.9-6.2,18.6-16.8,18.6S301.2,386.6,301.2,374.6z"/>
		<path class="st0" d="M377.1,351.9v40.6h-7l-18.4-24.7v24.7h-8.5v-40.6h7.1l18.4,24.7v-24.7H377.1z"/>
		<path class="st0" d="M385.8,351.9h16.8c12.1,0,20.4,8,20.4,20.3c0,12.3-8.3,20.3-20.4,20.3h-16.8V351.9z M402.2,384.8
			c7.3,0,12.2-4.8,12.2-12.6c0-7.8-4.8-12.6-12.2-12.6h-7.8v25.2H402.2z"/>
		<path class="st0" d="M426.6,388.5l2.9-7.1c3.1,2.5,7.8,4.2,12.2,4.2c5.1,0,7.1-1.9,7.1-4.4c0-7.6-21.5-2.4-21.5-17.5
			c0-6.9,5.1-12.6,15.6-12.6c4.7,0,9.4,1.2,12.8,3.6l-2.6,7.1c-3.4-2.1-7-3.2-10.3-3.2c-5.1,0-7,2.1-7,4.6c0,7.5,21.5,2.3,21.5,17.2
			c0,6.8-5.1,12.6-15.7,12.6C435.8,393.2,429.9,391.3,426.6,388.5z"/>
	</g>
	<g>
		<polygon class="st0" points="213.6,291.7 254.3,269.3 254.3,232.2 		"/>
		<polygon class="st0" points="262,325.8 286.9,294.2 286.9,277 316.3,262.5 321.7,232.2 262,264.8 		"/>
		<polygon class="st0" points="262,256.6 262,220.9 321.7,190.6 311.8,179.7 356.1,183.3 337.1,224.5 331.2,211.4 286.4,232.2 
			286.4,243.5 		"/>
	</g>
</g>
</svg>
